<svg xmlns="http://www.w3.org/2000/svg" xmlns:xlink="http://www.w3.org/1999/xlink" width="41" height="42" viewBox="0 0 41 42">
  <defs>
    <clipPath id="clip-path">
      <ellipse id="Ellipse_9" data-name="Ellipse 9" cx="20.5" cy="21" rx="20.5" ry="21" transform="translate(0.384)" fill="none"/>
    </clipPath>
    <radialGradient id="radial-gradient" cx="0.5" cy="0.5" r="0.5" gradientUnits="objectBoundingBox">
      <stop offset="0" stop-color="#ffd676"/>
      <stop offset="0.25" stop-color="#f2a454"/>
      <stop offset="0.38" stop-color="#f05c3c"/>
      <stop offset="0.7" stop-color="#c22f86"/>
      <stop offset="0.96" stop-color="#6666ad"/>
      <stop offset="0.99" stop-color="#5c6cb2"/>
    </radialGradient>
  </defs>
  <g id="Group_2329" data-name="Group 2329" transform="translate(-0.384)">
    <g id="Group_2328" data-name="Group 2328" transform="translate(0 0)" clip-path="url(#clip-path)">
      <ellipse id="Ellipse_8" data-name="Ellipse 8" cx="44.5" cy="45.5" rx="44.5" ry="45.5" transform="translate(-35.616 -6)" fill="url(#radial-gradient)"/>
    </g>
    <circle id="Ellipse_17" data-name="Ellipse 17" cx="1" cy="1" r="1" transform="translate(25.384 14)" fill="#fff"/>
    <path id="Path_1809" data-name="Path 1809" d="M53.249,48A5.249,5.249,0,1,0,58.5,53.249,5.249,5.249,0,0,0,53.249,48Zm0,7.874a2.625,2.625,0,1,1,2.625-2.625A2.625,2.625,0,0,1,53.249,55.874Z" transform="translate(-32.25 -32.25)" fill="#fff"/>
    <rect id="Rectangle_44" data-name="Rectangle 44" width="21" height="21" rx="3" transform="translate(10.384 10)" fill="none" stroke="#fff" stroke-miterlimit="10" stroke-width="2"/>
  </g>
</svg>
